<svg xmlns="http://www.w3.org/2000/svg" width="23" height="24" viewBox="0 0 23 24" fill="none">
                    <path d="M0 14.7704C0 15.2331 0.183893 15.6765 0.510154 16.0042L7.33791 22.832C7.66566 23.1597 8.10908 23.3421 8.57177 23.3421H16.7446C20.0206 23.3421 22.6752 20.6876 22.6752 17.4116V6.59753C22.6752 3.32157 20.0206 0.666992 16.7446 0.666992H5.93054C2.65458 0.666992 0 3.32157 0 6.59753V14.7704H0Z" fill="url(#paint0_linear_11785_218544)"/>
                    <path d="M16.2212 22.4702C19.3044 22.4702 21.8032 19.9713 21.8032 16.8882V7.1211C21.8032 4.03793 19.3044 1.53906 16.2212 1.53906H6.45264C3.36947 1.53906 0.870605 4.03793 0.870605 7.1211V14.3448C0.870605 15.116 1.49495 15.7403 2.26611 15.7403H3.76395C5.88316 15.7403 7.60049 17.4576 7.60049 19.5783V21.0762C7.60049 21.8473 8.22483 22.4717 8.99599 22.4717H16.2197L16.2212 22.4702Z" fill="url(#paint1_linear_11785_218544)"/>
                    <path d="M8.3864 15.4744C7.37796 15.4744 6.5801 15.1466 5.99135 14.4912C5.4026 13.8357 5.17421 12.9844 5.30768 11.9404C5.44115 10.9082 5.89051 10.0792 6.65574 9.45339C7.4091 8.83349 8.27666 8.52355 9.26138 8.52355C10.47 8.52355 11.3865 8.98773 12.0124 9.91757L10.8912 10.883C10.4596 10.269 9.88869 9.96354 9.17833 9.96354C8.60144 9.96354 8.09722 10.1489 7.66566 10.5197C7.23411 10.8904 6.97607 11.3724 6.89153 11.9686C6.81294 12.5573 6.93454 13.0467 7.25635 13.4353C7.5841 13.8119 8.03345 14.0003 8.60441 14.0003C9.32663 14.0003 9.99843 13.6844 10.6168 13.0526L11.5274 14.0641C11.1389 14.4956 10.6702 14.8382 10.12 15.0933C9.56984 15.3483 8.99147 15.4759 8.38492 15.4759L8.3864 15.4744ZM14.2517 15.4922C13.7119 15.4922 13.2299 15.375 12.8072 15.1422C12.3846 14.9079 12.0583 14.5668 11.8285 14.1174L12.9303 13.1698C13.0757 13.4427 13.2774 13.6622 13.5354 13.8253C13.7934 13.9899 14.0678 14.0715 14.36 14.0715C14.6032 14.0715 14.8078 14.0136 14.9754 13.898C15.143 13.7823 15.2409 13.634 15.272 13.4516C15.2957 13.2143 15.1474 13.0022 14.8256 12.8139L14.2339 12.5128C13.9358 12.3616 13.7 12.2281 13.5235 12.1124C12.8799 11.6868 12.613 11.1099 12.7227 10.3818C12.8013 9.81673 13.0742 9.36441 13.5428 9.0248C14.01 8.68519 14.5869 8.51465 15.2735 8.51465C16.1173 8.51465 16.8277 8.8157 17.4046 9.41632L16.4569 10.4915C16.0313 10.1089 15.5923 9.91757 15.1356 9.91757C14.8983 9.91757 14.7055 9.96948 14.5572 10.0718C14.4089 10.1756 14.3244 10.3091 14.3066 10.4722C14.2828 10.6116 14.314 10.7288 14.403 10.8222C14.4905 10.9156 14.6566 11.0269 14.8998 11.1544C15.6042 11.5192 16.0387 11.755 16.2018 11.8648C16.8158 12.2963 17.0635 12.8569 16.9493 13.5495C16.8588 14.156 16.5578 14.6335 16.0476 14.9791C15.5434 15.3187 14.9457 15.4892 14.2532 15.4892L14.2517 15.4922Z" fill="#F4F4F6"/>
                    <defs>
                    <linearGradient id="paint0_linear_11785_218544" x1="20.5989" y1="21.9199" x2="1.7366" y2="2.40359" gradientUnits="userSpaceOnUse">
                    <stop stop-color="white"/>
                    <stop offset="0.270588" stop-color="#C940FF"/>
                    <stop offset="0.478431" stop-color="#931FFF"/>
                    <stop offset="0.709804" stop-color="#1B6BFF"/>
                    <stop offset="1" stop-color="#EF96FF"/>
                    </linearGradient>
                    <linearGradient id="paint1_linear_11785_218544" x1="5.31814" y1="18.2629" x2="22.5388" y2="0.508371" gradientUnits="userSpaceOnUse">
                    <stop stop-color="#5105CD"/>
                    <stop offset="1" stop-color="#5105CD" stop-opacity="0"/>
                    </linearGradient>
                    </defs>
                </svg>